<svg xmlns="http://www.w3.org/2000/svg" viewBox="0 0 320 80" fill="none">
  <!-- 5-Person Team Collaboration Swirl Emblem -->
  <g transform="translate(42, 40) scale(0.68)">
    <g transform="rotate(0)">
      <circle cx="0" cy="-34" r="7.5" fill="#0099DA" />
      <path d="M-13 -22 C-13 -13 0 -13 0 0 C7 -6 16 -12 13 -22 C9 -26 -9 -26 -13 -22 Z" fill="#0099DA" />
    </g>
    <g transform="rotate(72)">
      <circle cx="0" cy="-34" r="7.5" fill="#00A859" />
      <path d="M-13 -22 C-13 -13 0 -13 0 0 C7 -6 16 -12 13 -22 C9 -26 -9 -26 -13 -22 Z" fill="#00A859" />
    </g>
    <g transform="rotate(144)">
      <circle cx="0" cy="-34" r="7.5" fill="#F7941D" />
      <path d="M-13 -22 C-13 -13 0 -13 0 0 C7 -6 16 -12 13 -22 C9 -26 -9 -26 -13 -22 Z" fill="#F7941D" />
    </g>
    <g transform="rotate(216)">
      <circle cx="0" cy="-34" r="7.5" fill="#C1272D" />
      <path d="M-13 -22 C-13 -13 0 -13 0 0 C7 -6 16 -12 13 -22 C9 -26 -9 -26 -13 -22 Z" fill="#C1272D" />
    </g>
    <g transform="rotate(288)">
      <circle cx="0" cy="-34" r="7.5" fill="#E6007E" />
      <path d="M-13 -22 C-13 -13 0 -13 0 0 C7 -6 16 -12 13 -22 C9 -26 -9 -26 -13 -22 Z" fill="#E6007E" />
    </g>
  </g>

  <!-- Vertical Divider Line -->
  <line x1="82" y1="14" x2="82" y2="66" stroke="#170A2C" stroke-opacity="0.3" stroke-width="2" stroke-linecap="round" />

  <!-- Symmetrical Centered Typography Lockup -->
  <g transform="translate(196, 0)">
    <!-- KAILAASH Main Title -->
    <text x="0" y="34" text-anchor="middle" fill="#170A2C" font-family="'Plus Jakarta Sans', 'Manrope', sans-serif" font-size="27" font-weight="900" letter-spacing="0.06em">KAILAASH</text>
    
    <!-- ENTERPRISES with Balanced Accent Lines -->
    <g transform="translate(0, 48)">
      <line x1="-92" y1="0" x2="-68" y2="0" stroke="#C59228" stroke-width="2" stroke-linecap="round" />
      <text x="0" y="4" text-anchor="middle" fill="#C59228" font-family="'Plus Jakarta Sans', 'Manrope', sans-serif" font-size="11.5" font-weight="800" letter-spacing="0.22em">ENTERPRISES</text>
      <line x1="68" y1="0" x2="92" y2="0" stroke="#C59228" stroke-width="2" stroke-linecap="round" />
    </g>

    <!-- Tagline -->
    <text x="0" y="65" text-anchor="middle" fill="#170A2C" font-family="'Manrope', sans-serif" font-size="7.5" font-weight="800" letter-spacing="0.14em">QUALITY WORK. LASTING IMPRESSION.</text>
  </g>
</svg>
